<svg width="24" height="24" viewBox="0 0 24 24" fill="none" xmlns="http://www.w3.org/2000/svg">
<rect width="24" height="24" fill="#FAFAFA"/>
<g id="Country">
<g id="el salvador">
<g id="el salvador_2" clip-path="url(#clip0_748_47)">
<path id="Vector" d="M11.9998 23.9995C18.627 23.9995 23.9995 18.627 23.9995 11.9998C23.9995 5.37248 18.627 0 11.9998 0C5.37248 0 0 5.37248 0 11.9998C0 18.627 5.37248 23.9995 11.9998 23.9995Z" fill="#F0F0F0"/>
<g id="Group">
<path id="Vector_2" d="M11.9998 0C7.24232 0 3.13166 2.76862 1.1907 6.78249H22.8088C20.8679 2.76862 16.7571 0 11.9998 0Z" fill="#0052B4"/>
<path id="Vector_3" d="M11.9998 23.9995C16.7572 23.9995 20.8679 21.2309 22.8088 17.217H1.1907C3.13166 21.2309 7.24233 23.9995 11.9998 23.9995Z" fill="#0052B4"/>
</g>
<path id="Vector_4" d="M9.58996 12.5215L11.9998 8.34766L14.4095 12.5215H9.58996Z" fill="#FFDA44"/>
<path id="Vector_5" d="M15.1302 13.8996L11.9998 15.4648L8.86937 13.8996V11.8127H15.1302V13.8996Z" fill="#6DA544"/>
<path id="Vector_6" d="M14.9511 8.5267L13.8443 9.63345C14.3164 10.1055 14.6084 10.7577 14.6084 11.478C14.6084 12.9188 13.4405 14.0867 11.9998 14.0867C10.5591 14.0867 9.39117 12.9187 9.39117 11.478C9.39117 10.7577 9.68319 10.1055 10.1553 9.63345L9.04852 8.5267C8.29314 9.28194 7.826 10.3254 7.826 11.478C7.826 13.7832 9.69468 15.6518 11.9998 15.6518C14.3049 15.6518 16.1736 13.7832 16.1736 11.478C16.1736 10.3254 15.7064 9.28194 14.9511 8.5267Z" fill="#FFDA44"/>
</g>
</g>
</g>
<defs>
<clipPath id="clip0_748_47">
<rect width="23.9995" height="23.9995" fill="white"/>
</clipPath>
</defs>
</svg>
