<svg width="24" height="24" viewBox="0 0 24 24" fill="none" xmlns="http://www.w3.org/2000/svg">
<rect width="24" height="24" fill="#FAFAFA"/>
<g id="Country">
<g id="eritrea">
<g id="eritrea_2" clip-path="url(#clip0_748_47)">
<path id="Vector" d="M10.9563 10.9563C10.9563 10.9563 3.52165 20.4866 3.51462 20.4849C5.68611 22.6564 8.68609 23.9995 11.9998 23.9995C18.627 23.9995 23.9995 18.627 23.9995 11.9998L10.9563 10.9563Z" fill="#338AF3"/>
<path id="Vector_2" d="M10.9563 11.9998C10.9563 11.9998 3.52165 3.51298 3.51462 3.51466C5.68611 1.34313 8.68609 0 11.9998 0C18.627 0 23.9995 5.37252 23.9995 11.9998H10.9563Z" fill="#6DA544"/>
<path id="Vector_3" d="M3.51461 3.51462C-1.17158 8.20081 -1.17158 15.7987 3.51461 20.4849C3.51428 20.4868 23.9995 11.9998 23.9995 11.9998L3.51461 3.51462Z" fill="#D80027"/>
<path id="Vector_4" d="M6.26074 7.04333C3.95927 7.04333 2.08693 8.91572 2.08693 11.2171V12.7823C2.08693 15.0838 3.95931 16.9561 6.26074 16.9561C8.56216 16.9561 10.4345 15.0837 10.4345 12.7823V11.2171C10.4346 8.91572 8.56221 7.04333 6.26074 7.04333ZM8.86937 12.7824C8.86937 13.9482 8.10054 14.9377 7.0433 15.2709V13.565L8.15065 12.4576L7.04391 11.3509L7.0433 10.957V10.4346H5.47817V11.9998L4.37157 13.1063L5.47817 14.2129V15.271C4.42093 14.9377 3.6521 13.9483 3.6521 12.7824V11.2172C3.6521 9.77881 4.82236 8.6086 6.26074 8.6086C7.69911 8.6086 8.86937 9.77886 8.86937 11.2172V12.7824Z" fill="#FFDA44"/>
</g>
</g>
</g>
<defs>
<clipPath id="clip0_748_47">
<rect width="23.9995" height="23.9995" fill="white"/>
</clipPath>
</defs>
</svg>
