<svg width="24" height="24" viewBox="0 0 24 24" fill="none" xmlns="http://www.w3.org/2000/svg">
<rect width="24" height="24" fill="#FAFAFA"/>
<g id="Country">
<g id="uganda">
<g id="uganda_2" clip-path="url(#clip0_748_47)">
<path id="Vector" d="M20.9265 19.9838C22.8254 17.8624 23.9806 15.0615 23.9806 11.9903C23.9806 8.9191 22.8253 6.1181 20.9264 3.99676L11.9903 3.12793L3.05415 3.99676C1.15524 6.1181 0 8.9191 0 11.9903C0 15.0615 1.15519 17.8624 3.0541 19.9838L11.9903 20.8527L20.9265 19.9838Z" fill="#FFDA44"/>
<path id="Vector_2" d="M3.05414 3.99675H20.9265C18.731 1.54403 15.5411 0 11.9903 0C8.43941 0 5.24958 1.54403 3.05414 3.99675Z" fill="black"/>
<path id="Vector_3" d="M0 11.9903L11.9903 13.0329L23.9806 11.9903C23.9806 10.5887 23.7393 9.24367 23.2973 7.9935H0.683259C0.241258 9.24367 0 10.5887 0 11.9903H0Z" fill="#D80027"/>
<path id="Vector_4" d="M0.683259 15.987H23.2974C23.7393 14.7368 23.9806 13.3918 23.9806 11.9903H0C0 13.3918 0.241258 14.7368 0.683259 15.987Z" fill="black"/>
<path id="Vector_5" d="M20.9264 19.9838H3.05408C5.24952 22.4365 8.43935 23.9806 11.9903 23.9806C15.5412 23.9806 18.731 22.4365 20.9264 19.9838Z" fill="#D80027"/>
<path id="Vector_6" d="M15.9914 11.9903C15.9914 14.2002 14.2002 15.9914 11.9903 15.9914C9.78039 15.9914 7.9892 14.2002 7.9892 11.9903C7.9892 9.78036 9.78039 7.98917 11.9903 7.98917C14.2002 7.98917 15.9914 9.78036 15.9914 11.9903Z" fill="#F0F0F0"/>
<path id="Vector_7" d="M13.4561 12.1943L11.9903 11.5592C11.9903 11.5592 12.3332 10.4209 12.3515 10.343C12.3648 10.2861 12.372 10.2267 12.372 10.1658C12.372 9.94979 12.2844 9.7543 12.1429 9.61285L12.5115 9.24424C12.2757 9.00842 11.9498 8.86252 11.5899 8.86252C11.23 8.86252 10.9042 9.00837 10.6684 9.24424L11.037 9.61285C10.8954 9.75434 10.8079 9.94984 10.8079 10.1658C10.8079 10.2447 10.8199 10.3208 10.8417 10.3927L10.2867 10.9477H11.2954C11.2954 10.9477 10.8783 11.5741 10.6507 12.0885C10.423 12.6028 10.6538 13.2308 11.18 13.4647L11.4842 13.5999L11.9903 14.0756V14.5969L11.469 15.1182H12.5116V14.0755L12.9874 13.5998H13.9713C13.976 13.59 13.981 13.5805 13.9855 13.5704C14.2193 13.0443 13.9823 12.4281 13.4561 12.1943Z" fill="black"/>
</g>
</g>
</g>
<defs>
<clipPath id="clip0_748_47">
<rect width="23.9806" height="23.9806" fill="white"/>
</clipPath>
</defs>
</svg>
